<svg width="138" height="9" viewBox="0 0 138 9" fill="none" xmlns="http://www.w3.org/2000/svg">
<path d="M4.08581 8.01099H4.30211V0.173077H5.88837V8.82692H2.78796L1.80256 0.989011H1.58625V8.82692H0V0.173077H3.10041L4.08581 8.01099Z" fill="#E00000"/>
<path d="M15.3375 6.97253H12.4774L12.0688 8.82692H10.4105L12.4173 0.173077H15.3975L17.4044 8.82692H15.746L15.3375 6.97253ZM12.8139 5.41484H14.989L14.0156 0.989011H13.7993L12.8139 5.41484Z" fill="#E00000"/>
<path d="M21.8424 0.173077H27.899V1.73077H25.6638V8.82692H24.0775V1.73077H21.8424V0.173077Z" fill="#E00000"/>
<path d="M32.8897 0.173077H34.476V3.70879H37.1918V0.173077H38.7781V8.82692H37.1918V5.26648H34.476V8.82692H32.8897V0.173077Z" fill="#E00000"/>
<path d="M48.2272 6.97253H45.3671L44.9585 8.82692H43.3002L45.307 0.173077H48.2872L50.2941 8.82692H48.6357L48.2272 6.97253ZM45.7036 5.41484H47.8787L46.9053 0.989011H46.689L45.7036 5.41484Z" fill="#E00000"/>
<path d="M55.0685 0.173077H56.6548V7.26923H60.4762V8.82692H55.0685V0.173077Z" fill="#E00000"/>
<path d="M65.9116 0.173077H71.5356V1.73077H69.5167V7.26923H71.5356V8.82692H65.9116V7.26923H67.9305V1.73077H65.9116V0.173077Z" fill="#E00000"/>
<path d="M76.995 0.173077H82.3066V1.73077H78.5813V3.70879H82.1624V5.26648H78.5813V7.26923H82.4508V8.82692H76.995V0.173077Z" fill="#E00000"/>
<path d="M98.2005 0.173077H100.988L101.469 6.67582V7.93681H101.758V6.67582L102.238 0.173077H105.026V8.82692H103.584V3.04121L103.728 1.06319H103.44L102.815 8.82692H100.436L99.7867 1.06319H99.4983L99.6425 3.04121V8.82692H98.2005V0.173077Z" fill="#E00000"/>
<path d="M109.476 3.53571C109.476 2.41484 109.749 1.54533 110.293 0.927197C110.846 0.309066 111.607 0 112.577 0C113.546 0 114.303 0.309066 114.848 0.927197C115.401 1.54533 115.677 2.41484 115.677 3.53571V5.46429C115.677 6.61813 115.401 7.49588 114.848 8.09753C114.303 8.69918 113.546 9 112.577 9C111.607 9 110.846 8.69918 110.293 8.09753C109.749 7.49588 109.476 6.61813 109.476 5.46429V3.53571ZM112.577 7.51648C112.865 7.51648 113.105 7.47115 113.298 7.38049C113.49 7.28159 113.646 7.14561 113.766 6.97253C113.886 6.79945 113.971 6.59341 114.019 6.3544C114.067 6.11539 114.091 5.85165 114.091 5.56319V3.43681C114.091 3.16484 114.063 2.90934 114.007 2.67033C113.951 2.43132 113.862 2.22528 113.742 2.0522C113.622 1.87912 113.466 1.74313 113.274 1.64423C113.081 1.53709 112.849 1.48352 112.577 1.48352C112.304 1.48352 112.072 1.53709 111.88 1.64423C111.687 1.74313 111.531 1.87912 111.411 2.0522C111.291 2.22528 111.203 2.43132 111.147 2.67033C111.09 2.90934 111.062 3.16484 111.062 3.43681V5.56319C111.062 5.85165 111.086 6.11539 111.134 6.3544C111.183 6.59341 111.267 6.79945 111.387 6.97253C111.507 7.14561 111.663 7.28159 111.856 7.38049C112.048 7.47115 112.288 7.51648 112.577 7.51648Z" fill="#E00000"/>
<path d="M120.511 0.173077H126.568V1.73077H124.333V8.82692H122.747V1.73077H120.511V0.173077Z" fill="#E00000"/>
<path d="M135.933 6.97253H133.073L132.664 8.82692H131.006L133.013 0.173077H135.993L138 8.82692H136.342L135.933 6.97253ZM133.409 5.41484H135.585L134.611 0.989011H134.395L133.409 5.41484Z" fill="#E00000"/>
</svg>
